<svg xmlns="http://www.w3.org/2000/svg" width="20" height="20" viewBox="0 0 20 20"><defs><style>.a{fill:#303030;}</style></defs><path class="a" d="M10,20c-2.712,0-3.06,0-4.12-.059a7.293,7.293,0,0,1-2.43-.471A4.81,4.81,0,0,1,1.68,18.32,4.727,4.727,0,0,1,.53,16.55a7.27,7.27,0,0,1-.47-2.43C0,13.06,0,12.712,0,10S0,6.94.06,5.88A7.27,7.27,0,0,1,.53,3.45,4.716,4.716,0,0,1,1.68,1.68,4.811,4.811,0,0,1,3.45.53,7.269,7.269,0,0,1,5.88.06C6.94,0,7.288,0,10,0s3.06,0,4.12.06a7.27,7.27,0,0,1,2.43.47,4.727,4.727,0,0,1,1.77,1.15A4.964,4.964,0,0,1,19.48,3.45a7.581,7.581,0,0,1,.461,2.43C20,6.94,20,7.288,20,10c0,1.666-.022,2.423-.039,3.031v.01c-.011.356-.02.661-.02,1.079a7.581,7.581,0,0,1-.461,2.43,4.88,4.88,0,0,1-1.159,1.77,4.735,4.735,0,0,1-1.77,1.149,7.293,7.293,0,0,1-2.43.471C13.06,20,12.712,20,10,20ZM10,4.869h-.02a5.113,5.113,0,1,0,.02,0Zm5.321-1.41a1.2,1.2,0,0,0-.234,2.377,1.2,1.2,0,0,0,1.083-2.025A1.209,1.209,0,0,0,15.325,3.459Zm-5.342,9.87a3.325,3.325,0,1,1,1.274-.253A3.321,3.321,0,0,1,9.984,13.329Z" transform="translate(0 0)"/></svg>