<svg xmlns="http://www.w3.org/2000/svg" width="20" height="16" viewBox="0 0 20 16"><defs><style>.a{fill:#303030;}</style></defs><path class="a" d="M17.637,2.533A4.026,4.026,0,0,0,19.441.3a8.272,8.272,0,0,1-2.6.977A4.116,4.116,0,0,0,14.747.1a4.16,4.16,0,0,0-2.406.185,4.089,4.089,0,0,0-1.884,1.485A3.993,3.993,0,0,0,9.749,4.04a4.1,4.1,0,0,0,.1.92A11.749,11.749,0,0,1,5.16,3.736a11.573,11.573,0,0,1-3.768-3A3.985,3.985,0,0,0,.935,3.681,4.039,4.039,0,0,0,2.651,6.133,4.1,4.1,0,0,1,.8,5.635v.044a4.017,4.017,0,0,0,.927,2.558A4.13,4.13,0,0,0,4.085,9.646a4.153,4.153,0,0,1-1.075.133,3.681,3.681,0,0,1-.776-.069A4.078,4.078,0,0,0,3.7,11.715a4.181,4.181,0,0,0,2.369.807A8.322,8.322,0,0,1,.981,14.244,7.8,7.8,0,0,1,0,14.188,11.676,11.676,0,0,0,6.29,16,11.5,11.5,0,0,0,17.96,4.513c0-.179-.006-.351-.015-.522A8.111,8.111,0,0,0,20,1.9h0A8.654,8.654,0,0,1,17.637,2.533Z"/></svg>